<svg width="28" height="30" viewBox="0 0 28 30" fill="none" xmlns="http://www.w3.org/2000/svg">
<mask id="mask0_1068_134972" style="mask-type:luminance" maskUnits="userSpaceOnUse" x="0" y="0" width="28" height="30">
<path d="M28 0H0V30H28V0Z" fill="white"/>
</mask>
<g mask="url(#mask0_1068_134972)">
<path d="M23.3468 28.8013C21.5444 30.3792 19.5558 30.1333 17.6603 29.3892C15.6451 28.6302 13.8028 28.5823 11.6746 29.3892C9.02421 30.4212 7.61756 30.1213 6.02136 28.8013C-2.99052 20.4313 -1.66035 7.68125 8.58193 7.20125C11.066 7.32125 12.8052 8.44025 14.2684 8.53325C16.4432 8.13425 18.5249 6.99125 20.8527 7.14125C23.6493 7.34525 25.7411 8.34125 27.1378 10.1322C21.3848 13.2522 22.7482 20.0923 28.0324 22.0123C26.9747 24.5173 25.618 26.9923 23.3435 28.8223L23.3468 28.8013ZM14.0689 7.11125C13.7995 3.39125 17.1416 0.33125 20.9857 0.03125C21.5145 4.32125 16.6627 7.53125 14.0689 7.11125Z" fill="black"/>
</g>
</svg>
