<svg width="40" height="36" viewBox="0 0 40 36" fill="none" xmlns="http://www.w3.org/2000/svg">
<path d="M39.8664 11.8379L21.4863 30.218C21.3083 30.396 21.0196 30.396 20.8416 30.218L10.5515 19.9279C10.3735 19.7499 10.3735 19.4612 10.5515 19.2831L28.9315 0.903066C29.1096 0.72502 29.3982 0.72502 29.5763 0.903066L39.8663 11.1931C40.0445 11.3712 40.0445 11.6599 39.8664 11.8379Z" fill="#5CC45C"/>
<path d="M39.867 11.1928L37.0952 8.4209L18.0703 27.4457L20.8422 30.2176C21.0202 30.3957 21.3089 30.3957 21.487 30.2176L39.867 11.8375C40.0451 11.6595 40.0451 11.3708 39.867 11.1928Z" fill="#4EAD4E"/>
<path d="M14.5004 20.798C14.9014 20.0561 14.9014 19.1533 14.5004 18.4112C14.4465 18.3116 14.4621 18.189 14.5422 18.109L27.7574 4.89373C27.8375 4.81365 27.96 4.7981 28.0597 4.85201C28.8015 5.25302 29.7043 5.25302 30.4465 4.85193C30.5461 4.7981 30.6686 4.81365 30.7487 4.89365L35.874 10.0189C35.954 10.099 35.9696 10.2215 35.9157 10.3211C35.5146 11.0632 35.5146 11.9659 35.9157 12.7079C35.9695 12.8076 35.954 12.9301 35.874 13.0102L22.6586 26.2255C22.5786 26.3056 22.456 26.3211 22.3564 26.2673C21.6143 25.8663 20.7115 25.8663 19.9697 26.2673C19.87 26.3211 19.7475 26.3056 19.6674 26.2255L14.5422 21.1003C14.4621 21.0202 14.4465 20.8976 14.5004 20.798Z" fill="#A0E557"/>
<path d="M35.9143 12.7085C35.5132 11.9665 35.5132 11.0637 35.9143 10.3217C35.9681 10.2221 35.9526 10.0995 35.8726 10.0195L32.9215 7.06836C32.3913 7.89172 32.3913 8.9593 32.9215 9.78266L19.4291 23.275C18.6057 22.7449 17.538 22.745 16.7148 23.275L19.6659 26.2261C19.746 26.3062 19.8686 26.3216 19.9682 26.2678C20.7101 25.8669 21.6129 25.8668 22.3549 26.2679C22.4545 26.3217 22.5771 26.3062 22.6572 26.2261L35.8725 13.0108C35.9526 12.9308 35.9681 12.8081 35.9143 12.7085Z" fill="#93CC4A"/>
<path d="M27.8578 18.2111C29.3217 16.7472 29.3217 14.3739 27.8578 12.91C26.394 11.4462 24.0206 11.4462 22.5568 12.91C21.0929 14.3739 21.0929 16.7472 22.5568 18.2111C24.0206 19.6749 26.394 19.6749 27.8578 18.2111Z" fill="#F3E8D7"/>
<path d="M20.7616 24.4611L26.417 18.8058C27.0688 18.154 27.3459 17.3745 26.6941 16.7228C25.667 15.4472 21.9173 16.4701 20.1387 18.2488C19.2763 19.1111 18.297 20.0907 17.7572 20.6308C17.493 20.895 17.1351 21.0435 16.7569 21.0435H16.7374C16.1134 21.0435 15.3826 20.4393 15.2216 19.8364L15.2212 14.6106L16.1545 13.6774L17.1798 12.6521L21.252 8.57989C19.5766 8.39216 17.9107 8.2906 17.2645 8.21318C16.546 8.12708 15.9332 8.44903 15.3756 8.91028L10.1624 13.0231C9.42672 13.6318 8.89633 14.4519 8.64227 15.3724C8.07313 17.434 6.8743 21.0806 6.11344 22.5308L2.3125 26.3317L8.89297 32.9122L10.7231 31.082C11.0671 30.738 11.4924 30.4866 11.9596 30.3511L15.7819 29.0641C16.9826 28.6522 18.0396 27.9037 18.827 26.9079L20.7616 24.4611Z" fill="#FCD7C3"/>
<path d="M18.8299 26.9088L20.7645 24.4621L26.4199 18.8067C27.0716 18.155 27.3487 17.3755 26.697 16.7238C26.3195 16.2549 25.574 16.0967 24.6938 16.1724C23.4045 16.2832 22.2031 16.8726 21.2881 17.7876L17.6891 21.3867L15.7545 23.8334C14.9671 24.8292 13.9101 25.5776 12.7093 25.9895L8.88703 27.2766C8.41984 27.412 7.99445 27.6635 7.65047 28.0074L5.82031 29.8376L8.89578 32.9131L10.7259 31.0829C11.0699 30.7389 11.4952 30.4875 11.9624 30.352L15.7847 29.065C16.9855 28.653 18.0426 27.9045 18.8299 26.9088Z" fill="#FFCDAC"/>
<path d="M7.82795 35.0186L0.211699 27.4022C-0.0705664 27.12 -0.0705664 26.6624 0.211699 26.3801L1.55201 25.0398C1.83428 24.7576 2.29186 24.7576 2.57412 25.0398L10.1904 32.6562C10.4727 32.9384 10.4727 33.396 10.1904 33.6783L8.85014 35.0185C8.56787 35.3008 8.11021 35.3008 7.82795 35.0186Z" fill="#464C50"/>
<path d="M10.1878 32.6555L7.60461 30.0723L5.24219 32.4347L7.82539 35.0179C8.10766 35.3002 8.56523 35.3002 8.8475 35.0179L10.1877 33.6777C10.4701 33.3954 10.4701 32.9377 10.1878 32.6555Z" fill="#33393A"/>
<path d="M26.1977 18.6293C25.4471 17.8788 24.2302 17.8788 23.4796 18.6293L22.6257 19.4832C22.2393 19.8696 22.2393 20.496 22.6257 20.8824L23.485 21.7417L26.3975 18.8292L26.1977 18.6293Z" fill="#EFEFEF"/>
</svg>
