<svg width="13" height="12" viewBox="0 0 13 12" fill="none" xmlns="http://www.w3.org/2000/svg">
<path d="M11.5054 5.71028C11.5536 5.54956 11.5777 5.38349 11.5777 5.21474C11.5777 4.83573 11.4531 4.47144 11.2281 4.17412C11.2763 4.0134 11.3004 3.84733 11.3004 3.67858C11.3004 3.29956 11.1759 2.93528 10.9509 2.63796C10.9991 2.47724 11.0232 2.31117 11.0232 2.14242C11.0232 1.45135 10.6121 0.828583 9.97455 0.556708C9.8625 0.508398 9.74167 0.483775 9.61964 0.484386H1.5692C1.33214 0.484386 1.14062 0.675904 1.14062 0.912958V5.78796C1.14062 6.02501 1.33214 6.21653 1.5692 6.21653H3.30089L4.45 10.379C4.63482 11.05 5.25089 11.5188 5.94732 11.5188C6.34509 11.5188 6.71607 11.3607 6.99063 11.0714C7.26518 10.7835 7.4058 10.4058 7.38571 10.008L7.30536 8.36206H10.5183C10.6804 8.36206 10.8384 8.31921 10.9777 8.23751C11.5188 7.92278 11.8549 7.35224 11.8549 6.7509C11.8549 6.37189 11.7304 6.0076 11.5054 5.71028ZM2.10491 5.2509V1.44733H3.18973V5.2509H2.10491ZM10.5049 7.39912H6.2942L6.42277 10.0563C6.4308 10.2156 6.35982 10.3656 6.22723 10.4647C6.14554 10.525 6.04509 10.5558 5.94464 10.5545C5.81632 10.5532 5.69185 10.5104 5.58994 10.4324C5.48804 10.3544 5.41418 10.2454 5.37946 10.1219L4.04688 5.29376V1.44733H9.61027C9.74414 1.50733 9.85783 1.60472 9.93766 1.72779C10.0175 1.85087 10.0601 1.99438 10.0603 2.14108C10.0603 2.27099 10.0295 2.39421 9.96786 2.50671L9.7817 2.84689L10.075 3.10135C10.1576 3.17285 10.2237 3.2613 10.269 3.36068C10.3143 3.46006 10.3377 3.56803 10.3375 3.67724C10.3375 3.80715 10.3067 3.93037 10.2451 4.04287L10.0589 4.38305L10.3522 4.63751C10.4348 4.70901 10.501 4.79746 10.5463 4.89684C10.5916 4.99622 10.6149 5.10419 10.6147 5.2134C10.6147 5.34331 10.5839 5.46653 10.5223 5.57903L10.3348 5.92055L10.6281 6.17501C10.7107 6.24651 10.7769 6.33496 10.8222 6.43434C10.8675 6.53372 10.8908 6.64169 10.8906 6.7509C10.8906 7.00671 10.7433 7.25314 10.5049 7.39912Z" fill="black" fill-opacity="0.45"/>
</svg>
