<svg width="13" height="12" viewBox="0 0 13 12" fill="none" xmlns="http://www.w3.org/2000/svg">
<path d="M11.5054 6.29421C11.7304 5.99689 11.8549 5.6326 11.8549 5.25358C11.8549 4.65224 11.5188 4.08305 10.9777 3.76564C10.8384 3.68393 10.6798 3.64093 10.5183 3.64108H7.3067L7.38705 1.9951C7.4058 1.59733 7.26518 1.21965 6.99197 0.931706C6.85788 0.78978 6.69612 0.676858 6.51667 0.599919C6.33723 0.52298 6.14391 0.483658 5.94866 0.484385C5.25223 0.484385 4.63616 0.953135 4.45134 1.62412L3.30089 5.7893H1.5692C1.33214 5.7893 1.14062 5.98081 1.14062 6.21787V11.0929C1.14062 11.3299 1.33214 11.5214 1.5692 11.5214H9.62232C9.74554 11.5214 9.86607 11.4973 9.97723 11.4491C10.6147 11.1772 11.0259 10.5545 11.0259 9.8634C11.0259 9.69465 11.0018 9.52858 10.9536 9.36787C11.1786 9.07055 11.3031 8.70626 11.3031 8.32724C11.3031 8.15849 11.279 7.99242 11.2308 7.83171C11.4558 7.53439 11.5804 7.1701 11.5804 6.79108C11.5777 6.62233 11.5536 6.45492 11.5054 6.29421ZM2.10491 10.5572V6.75358H3.18973V10.5572H2.10491ZM10.6281 5.82947L10.3348 6.08394L10.521 6.42412C10.5823 6.53618 10.6141 6.662 10.6134 6.78974C10.6134 7.01073 10.517 7.22099 10.3509 7.36564L10.0576 7.6201L10.2438 7.96028C10.3051 8.07234 10.3369 8.19816 10.3362 8.3259C10.3362 8.54689 10.2397 8.75715 10.0737 8.9018L9.78036 9.15626L9.96652 9.49644C10.0279 9.6085 10.0597 9.73432 10.0589 9.86206C10.0589 10.1621 9.88214 10.4326 9.60893 10.5558H4.04688V6.71072L5.37946 1.8826C5.41383 1.75885 5.48759 1.64967 5.58958 1.57161C5.69156 1.49355 5.81621 1.45086 5.94464 1.45001C6.04643 1.45001 6.14688 1.47947 6.22723 1.53974C6.35982 1.63885 6.4308 1.78885 6.42277 1.94822L6.2942 4.60537H10.5049C10.7433 4.75135 10.8906 4.99778 10.8906 5.25358C10.8906 5.47456 10.7942 5.68349 10.6281 5.82947Z" fill="black" fill-opacity="0.45"/>
</svg>
