<svg width="14" height="14" viewBox="0 0 14 14" fill="none" xmlns="http://www.w3.org/2000/svg">
<g clip-path="url(#clip0_1421_10877)">
<rect width="14" height="14" fill="white" fill-opacity="0.01"/>
<path d="M13.1887 4.52032L9.22154 3.94376L7.4481 0.348443C7.39966 0.250006 7.31998 0.170318 7.22154 0.121881C6.97466 5.7891e-06 6.67466 0.101568 6.55123 0.348443L4.77779 3.94376L0.810601 4.52032C0.701226 4.53594 0.601226 4.58751 0.524663 4.66563C0.432103 4.76077 0.381099 4.88876 0.382856 5.02148C0.384614 5.1542 0.438991 5.28079 0.534038 5.37344L3.40435 8.17188L2.72623 12.1234C2.71032 12.2154 2.7205 12.3099 2.75559 12.3963C2.79068 12.4828 2.84929 12.5576 2.92477 12.6125C3.00025 12.6673 3.08958 12.6999 3.18263 12.7065C3.27568 12.7131 3.36873 12.6936 3.45123 12.65L6.99966 10.7844L10.5481 12.65C10.645 12.7016 10.7575 12.7188 10.8653 12.7C11.1372 12.6531 11.32 12.3953 11.2731 12.1234L10.595 8.17188L13.4653 5.37344C13.5434 5.29688 13.595 5.19688 13.6106 5.08751C13.6528 4.81407 13.4622 4.56094 13.1887 4.52032ZM9.38716 7.77813L9.95123 11.0641L6.99966 9.51407L4.0481 11.0656L4.61216 7.77969L2.22466 5.45157L5.52466 4.97188L6.99966 1.98282L8.47466 4.97188L11.7747 5.45157L9.38716 7.77813Z" fill="black" fill-opacity="0.45"/>
</g>
<defs>
<clipPath id="clip0_1421_10877">
<rect width="14" height="14" fill="white"/>
</clipPath>
</defs>
</svg>
