<svg width="24" height="24" viewBox="0 0 24 24" fill="none" xmlns="http://www.w3.org/2000/svg">
<path d="M0.5 12C0.5 5.64873 5.64873 0.5 12 0.5C18.3513 0.5 23.5 5.64873 23.5 12C23.5 18.3513 18.3513 23.5 12 23.5C5.64873 23.5 0.5 18.3513 0.5 12Z" fill="white" stroke="#0B3C49"/>
<path d="M17.3607 7.6875H16.4245C16.2933 7.6875 16.1687 7.74777 16.0884 7.85089L10.5665 14.846L7.91874 11.4911C7.87869 11.4402 7.82764 11.3991 7.76941 11.3708C7.71119 11.3425 7.64732 11.3278 7.58258 11.3277H6.64642C6.55669 11.3277 6.50714 11.4308 6.56205 11.5004L10.2304 16.1478C10.4018 16.3647 10.7312 16.3647 10.904 16.1478L17.4451 7.85893C17.5 7.79063 17.4504 7.6875 17.3607 7.6875Z" fill="#0B3C49"/>
</svg>
