<svg width="24" height="24" viewBox="0 0 24 24" fill="none" xmlns="http://www.w3.org/2000/svg">
<path d="M0.5 12C0.5 5.64873 5.64873 0.5 12 0.5C18.3513 0.5 23.5 5.64873 23.5 12C23.5 18.3513 18.3513 23.5 12 23.5C5.64873 23.5 0.5 18.3513 0.5 12Z" fill="#81898A" stroke="#81898A"/>
<path d="M15.6953 18H8.21094V16.9141L11.2656 13.8125C11.8333 13.2396 12.3099 12.7292 12.6953 12.2812C13.0859 11.8333 13.3828 11.3932 13.5859 10.9609C13.7891 10.5234 13.8906 10.0443 13.8906 9.52344C13.8906 8.8776 13.6979 8.38542 13.3125 8.04688C12.9323 7.70312 12.4297 7.53125 11.8047 7.53125C11.2578 7.53125 10.7734 7.625 10.3516 7.8125C9.92969 8 9.4974 8.26562 9.05469 8.60938L8.35938 7.73438C8.66146 7.47917 8.98958 7.2526 9.34375 7.05469C9.70312 6.85677 10.0859 6.70052 10.4922 6.58594C10.9036 6.47135 11.3411 6.41406 11.8047 6.41406C12.5078 6.41406 13.1146 6.53646 13.625 6.78125C14.1354 7.02604 14.5286 7.375 14.8047 7.82812C15.0859 8.28125 15.2266 8.82031 15.2266 9.44531C15.2266 10.0495 15.1068 10.612 14.8672 11.1328C14.6276 11.6484 14.2917 12.1615 13.8594 12.6719C13.4271 13.1771 12.9219 13.7135 12.3438 14.2812L9.85938 16.7578V16.8125H15.6953V18Z" fill="white"/>
</svg>
