<svg width="32" height="28" viewBox="0 0 32 28" fill="none" xmlns="http://www.w3.org/2000/svg">
<path d="M28.11 2.3513C27.76 1.36797 26.78 0.667969 25.625 0.667969H6.375C5.22 0.667969 4.2575 1.36797 3.89 2.3513L0.25 12.3346V25.668C0.25 26.5846 1.0375 27.3346 2 27.3346H3.75C4.7125 27.3346 5.5 26.5846 5.5 25.668V24.0013H26.5V25.668C26.5 26.5846 27.2875 27.3346 28.25 27.3346H30C30.9625 27.3346 31.75 26.5846 31.75 25.668V12.3346L28.11 2.3513ZM6.9875 4.0013H24.995L26.885 9.18463H5.0975L6.9875 4.0013ZM28.25 20.668H3.75V12.3346H28.25V20.668Z" fill="black"/>
<path d="M8.125 19.0013C9.57475 19.0013 10.75 17.882 10.75 16.5013C10.75 15.1206 9.57475 14.0013 8.125 14.0013C6.67525 14.0013 5.5 15.1206 5.5 16.5013C5.5 17.882 6.67525 19.0013 8.125 19.0013Z" fill="black"/>
<path d="M23.875 19.0013C25.3247 19.0013 26.5 17.882 26.5 16.5013C26.5 15.1206 25.3247 14.0013 23.875 14.0013C22.4253 14.0013 21.25 15.1206 21.25 16.5013C21.25 17.882 22.4253 19.0013 23.875 19.0013Z" fill="black"/>
</svg>
