<svg width="14" height="14" viewBox="0 0 14 14" fill="none" xmlns="http://www.w3.org/2000/svg">
<g clip-path="url(#clip0_1365_39371)">
<path d="M3.02644 10.75C3.05769 10.75 3.08894 10.7469 3.12019 10.7422L5.74832 10.2813C5.77957 10.275 5.80925 10.2609 5.83113 10.2375L12.4546 3.61406C12.4691 3.59961 12.4805 3.58244 12.4884 3.56354C12.4962 3.54463 12.5003 3.52437 12.5003 3.50391C12.5003 3.48344 12.4962 3.46318 12.4884 3.44428C12.4805 3.42538 12.4691 3.40821 12.4546 3.39375L9.85769 0.795313C9.828 0.765625 9.78894 0.75 9.74675 0.75C9.70457 0.75 9.6655 0.765625 9.63582 0.795313L3.01238 7.41875C2.98894 7.44219 2.97488 7.47031 2.96863 7.50156L2.50769 10.1297C2.49249 10.2134 2.49792 10.2995 2.52351 10.3807C2.54911 10.4618 2.59409 10.5355 2.65457 10.5953C2.75769 10.6953 2.88738 10.75 3.02644 10.75ZM4.07957 8.025L9.74675 2.35938L10.8921 3.50469L5.22488 9.17031L3.83582 9.41563L4.07957 8.025ZM12.7499 12.0625H1.24988C0.973315 12.0625 0.749878 12.2859 0.749878 12.5625V13.125C0.749878 13.1938 0.806128 13.25 0.874878 13.25H13.1249C13.1936 13.25 13.2499 13.1938 13.2499 13.125V12.5625C13.2499 12.2859 13.0264 12.0625 12.7499 12.0625Z" fill="black" fill-opacity="0.85"/>
</g>
<defs>
<clipPath id="clip0_1365_39371">
<rect width="14" height="14" fill="white"/>
</clipPath>
</defs>
</svg>
