<svg width="30" height="30" viewBox="0 0 30 30" fill="none" xmlns="http://www.w3.org/2000/svg">
<path fill-rule="evenodd" clip-rule="evenodd" d="M30 15.0912C30 6.7572 23.2835 0 15 0C6.71638 0 0 6.7572 0 15.0912C0 22.6229 5.48452 28.8665 12.6565 30V19.4545H8.84685V15.0912H12.6565V11.7656C12.6565 7.98376 14.8966 5.89338 18.3223 5.89338C19.9634 5.89338 21.6804 6.18835 21.6804 6.18835V9.90231H19.7883C17.9258 9.90231 17.3435 11.0653 17.3435 12.2601V15.091H21.5031L20.8387 19.4544H17.3434V29.9998C24.5154 28.8686 29.9998 22.625 29.9998 15.091L30 15.0912Z" fill="#1977F3"/>
</svg>
