<svg width="30" height="30" viewBox="0 0 30 30" fill="none" xmlns="http://www.w3.org/2000/svg">
<mask id="mask0_1068_134961" style="mask-type:luminance" maskUnits="userSpaceOnUse" x="0" y="0" width="30" height="30">
<path d="M30 0H0V30H30V0Z" fill="white"/>
</mask>
<g mask="url(#mask0_1068_134961)">
<path d="M30.0039 15.3448C30.0039 14.3252 29.9195 13.3 29.7395 12.2969H15.3047V18.0731H23.5708C23.2278 19.9361 22.1257 21.5841 20.5118 22.6312V26.3791H25.4434C28.3394 23.7666 30.0039 19.9085 30.0039 15.3448Z" fill="#4285F4"/>
<path d="M15.3007 30.0007C19.4282 30.0007 22.909 28.6723 25.4449 26.3794L20.5134 22.6315C19.1414 23.5465 17.3701 24.0646 15.3063 24.0646C11.3138 24.0646 7.92865 21.4244 6.71403 17.875H1.625V21.7386C4.22294 26.804 9.51441 30.0007 15.3007 30.0007Z" fill="#34A853"/>
<path d="M6.71132 17.8725C6.07027 16.0095 6.07027 13.9922 6.71132 12.1293V8.26562H1.62793C-0.542642 12.5041 -0.542642 17.4977 1.62793 21.736L6.71132 17.8725Z" fill="#FBBC04"/>
<path d="M15.3007 5.93707C17.4825 5.90401 19.5912 6.7087 21.1714 8.18584L25.5406 3.90326C22.774 1.35688 19.102 -0.0430824 15.3007 0.00101083C9.51439 0.00101083 4.22294 3.19778 1.625 8.26851L6.7084 12.1322C7.91739 8.57716 11.3082 5.93707 15.3007 5.93707Z" fill="#EA4335"/>
</g>
</svg>
