<svg width="14" height="14" viewBox="0 0 14 14" fill="none" xmlns="http://www.w3.org/2000/svg">
<rect width="14" height="14" fill="white"/>
<path d="M12.6191 3.87931C12.4359 3.45498 12.1716 3.07046 11.8412 2.74728C11.5105 2.42312 11.1207 2.16552 10.6928 1.98849C10.2491 1.80418 9.77321 1.70984 9.29277 1.71095C8.61875 1.71095 7.96113 1.89552 7.38965 2.24415C7.25293 2.32755 7.12305 2.41915 7 2.51895C6.87695 2.41915 6.74707 2.32755 6.61035 2.24415C6.03887 1.89552 5.38125 1.71095 4.70723 1.71095C4.22187 1.71095 3.75156 1.80392 3.30723 1.98849C2.87793 2.16622 2.49102 2.42188 2.15879 2.74728C1.82793 3.0701 1.56362 3.45471 1.38086 3.87931C1.19082 4.32091 1.09375 4.78985 1.09375 5.27247C1.09375 5.72774 1.18672 6.20216 1.37129 6.68477C1.52578 7.0881 1.74727 7.50645 2.03027 7.92892C2.47871 8.59747 3.09531 9.29474 3.86094 10.0016C5.12969 11.1733 6.38613 11.9826 6.43945 12.0154L6.76348 12.2233C6.90703 12.3149 7.0916 12.3149 7.23516 12.2233L7.55918 12.0154C7.6125 11.9813 8.86758 11.1733 10.1377 10.0016C10.9033 9.29474 11.5199 8.59747 11.9684 7.92892C12.2514 7.50645 12.4742 7.0881 12.6273 6.68477C12.8119 6.20216 12.9049 5.72774 12.9049 5.27247C12.9062 4.78985 12.8092 4.32091 12.6191 3.87931Z" fill="#BA1A1A"/>
</svg>
