<svg width="24" height="25" viewBox="0 0 24 25" fill="none" xmlns="http://www.w3.org/2000/svg">
<g clip-path="url(#clip0_1109_116654)">
<path d="M12 0.601562C5.37321 0.601562 0 5.97478 0 12.6016C0 19.2283 5.37321 24.6016 12 24.6016C18.6268 24.6016 24 19.2283 24 12.6016C24 5.97478 18.6268 0.601562 12 0.601562ZM12 22.5658C6.49821 22.5658 2.03571 18.1033 2.03571 12.6016C2.03571 7.09978 6.49821 2.63728 12 2.63728C17.5018 2.63728 21.9643 7.09978 21.9643 12.6016C21.9643 18.1033 17.5018 22.5658 12 22.5658Z" fill="black" fill-opacity="0.85"/>
<path d="M10.7139 7.88728C10.7139 8.22827 10.8493 8.5553 11.0904 8.79641C11.3316 9.03753 11.6586 9.17299 11.9996 9.17299C12.3406 9.17299 12.6676 9.03753 12.9087 8.79641C13.1498 8.5553 13.2853 8.22827 13.2853 7.88728C13.2853 7.54628 13.1498 7.21926 12.9087 6.97814C12.6676 6.73702 12.3406 6.60156 11.9996 6.60156C11.6586 6.60156 11.3316 6.73702 11.0904 6.97814C10.8493 7.21926 10.7139 7.54628 10.7139 7.88728ZM12.6424 10.8873H11.3567C11.2389 10.8873 11.1424 10.9837 11.1424 11.1016V18.3873C11.1424 18.5051 11.2389 18.6016 11.3567 18.6016H12.6424C12.7603 18.6016 12.8567 18.5051 12.8567 18.3873V11.1016C12.8567 10.9837 12.7603 10.8873 12.6424 10.8873Z" fill="black" fill-opacity="0.85"/>
</g>
<defs>
<clipPath id="clip0_1109_116654">
<rect width="24" height="24" fill="white" transform="translate(0 0.601562)"/>
</clipPath>
</defs>
</svg>
