<svg width="20" height="21" viewBox="0 0 20 21" fill="none" xmlns="http://www.w3.org/2000/svg">
<path d="M6.54722 10.3545L12.0383 6.38124C12.065 6.36186 12.0965 6.35026 12.1294 6.3477C12.1623 6.34515 12.1952 6.35175 12.2246 6.36678C12.2539 6.3818 12.2785 6.40466 12.2957 6.43282C12.3129 6.46099 12.3219 6.49335 12.3218 6.52633V7.5732C12.3218 7.80088 12.2124 8.0174 12.0271 8.15133L8.7816 10.4995L12.0271 12.8478C12.2124 12.9817 12.3218 13.196 12.3218 13.4259V14.4728C12.3218 14.6178 12.1566 14.7027 12.0383 14.6178L6.54722 10.6446C6.44901 10.5732 6.44901 10.4259 6.54722 10.3545Z" fill="black" fill-opacity="0.85"/>
<path d="M10 0.5C15.5223 0.5 20 4.97768 20 10.5C20 16.0223 15.5223 20.5 10 20.5C4.47768 20.5 0 16.0223 0 10.5C0 4.97768 4.47768 0.5 10 0.5ZM10 18.8036C14.5848 18.8036 18.3036 15.0848 18.3036 10.5C18.3036 5.91518 14.5848 2.19643 10 2.19643C5.41518 2.19643 1.69643 5.91518 1.69643 10.5C1.69643 15.0848 5.41518 18.8036 10 18.8036Z" fill="black" fill-opacity="0.85"/>
</svg>
