<svg width="34" height="34" viewBox="0 0 34 34" fill="none" xmlns="http://www.w3.org/2000/svg">
<path d="M32.2292 0.875L31.9425 0.92875L22.375 4.6375L11.625 0.875L1.52 4.27917C1.14375 4.40458 0.875 4.72708 0.875 5.13917V32.2292C0.875 32.7308 1.26917 33.125 1.77083 33.125L2.0575 33.0712L11.625 29.3625L22.375 33.125L32.48 29.7208C32.8562 29.5954 33.125 29.2729 33.125 28.8608V1.77083C33.125 1.26917 32.7308 0.875 32.2292 0.875ZM13.4167 5.30042L20.5833 7.80875V28.6996L13.4167 26.1912V5.30042ZM4.45833 7.07417L9.83333 5.26458V26.2271L4.45833 28.3054V7.07417ZM29.5417 26.9258L24.1667 28.7354V7.79083L29.5417 5.7125V26.9258Z" fill="black"/>
</svg>
