<svg width="11" height="12" viewBox="0 0 11 12" fill="none" xmlns="http://www.w3.org/2000/svg">
<path d="M5.5 11.25C4.04167 11.25 2.80208 10.7396 1.78125 9.71875C0.760417 8.69792 0.25 7.45833 0.25 6C0.25 4.54167 0.760417 3.30208 1.78125 2.28125C2.80208 1.26042 4.04167 0.75 5.5 0.75C5.63611 0.75 5.76979 0.754861 5.90104 0.764583C6.03229 0.774306 6.16111 0.788889 6.2875 0.808333C5.88889 1.09028 5.57049 1.45729 5.33229 1.90937C5.0941 2.36146 4.975 2.85 4.975 3.375C4.975 4.25 5.28125 4.99375 5.89375 5.60625C6.50625 6.21875 7.25 6.525 8.125 6.525C8.65972 6.525 9.15069 6.4059 9.59792 6.16771C10.0451 5.92951 10.4097 5.61111 10.6917 5.2125C10.7111 5.33889 10.7257 5.46771 10.7354 5.59896C10.7451 5.73021 10.75 5.86389 10.75 6C10.75 7.45833 10.2396 8.69792 9.21875 9.71875C8.19792 10.7396 6.95833 11.25 5.5 11.25ZM5.5 10.0833C6.35556 10.0833 7.12361 9.84757 7.80417 9.37604C8.48472 8.90451 8.98056 8.28958 9.29167 7.53125C9.09722 7.57986 8.90278 7.61875 8.70833 7.64792C8.51389 7.67708 8.31944 7.69167 8.125 7.69167C6.92917 7.69167 5.91076 7.27118 5.06979 6.43021C4.22882 5.58924 3.80833 4.57083 3.80833 3.375C3.80833 3.18056 3.82292 2.98611 3.85208 2.79167C3.88125 2.59722 3.92014 2.40278 3.96875 2.20833C3.21042 2.51944 2.59549 3.01528 2.12396 3.69583C1.65243 4.37639 1.41667 5.14444 1.41667 6C1.41667 7.12778 1.81528 8.09028 2.6125 8.8875C3.40972 9.68472 4.37222 10.0833 5.5 10.0833Z" fill="white"/>
</svg>
