<svg width="14" height="14" viewBox="0 0 14 14" fill="none" xmlns="http://www.w3.org/2000/svg">
<path d="M9.00938 5.71563H13.0266C13.15 5.71563 13.25 5.61563 13.25 5.49219V1.47344C13.25 1.35 13.15 1.25 13.0266 1.25H9.00938C8.88594 1.25 8.78594 1.35 8.78594 1.47344V2.925H6.66563C6.60469 2.925 6.55469 2.975 6.55469 3.03594V6.49688H5.21563V4.98906C5.21563 4.86563 5.11563 4.76563 4.99219 4.76563H0.973438C0.85 4.76563 0.75 4.86563 0.75 4.98906V9.00781C0.75 9.13125 0.85 9.23125 0.973438 9.23125H4.99063C5.11406 9.23125 5.21406 9.13125 5.21406 9.00781V7.5H6.55313V10.9609C6.55313 11.0219 6.60313 11.0719 6.66406 11.0719H8.78438V12.5234C8.78438 12.6469 8.88438 12.7469 9.00781 12.7469H13.025C13.1484 12.7469 13.2484 12.6469 13.2484 12.5234V8.50781C13.2484 8.38438 13.1484 8.28438 13.025 8.28438H9.00938C8.88594 8.28438 8.78594 8.38438 8.78594 8.50781V10.0703H7.55781V3.92969H8.78594V5.49219C8.78594 5.61563 8.88594 5.71563 9.00938 5.71563ZM9.84531 2.31094H12.1891V4.65625H9.84531V2.31094ZM4.15469 8.17188H1.81094V5.82813H4.15469V8.17188ZM9.84531 9.34531H12.1891V11.6906H9.84531V9.34531Z" fill="black" fill-opacity="0.85"/>
</svg>
