<svg width="29" height="25" viewBox="0 0 29 25" fill="none" xmlns="http://www.w3.org/2000/svg">
<path d="M11.0625 7.5V15L17.525 18.625L18.625 17.125L13.125 14.125V7.5H11.0625Z" fill="#1E1E1E"/>
<path d="M21.9525 12.5C22.0212 12.9125 22.0625 13.325 22.0625 13.75C22.0625 18.625 17.8 22.5 12.4375 22.5C7.075 22.5 2.8125 18.625 2.8125 13.75C2.8125 8.875 7.075 5 12.4375 5C13.4 5 14.3212 5.125 15.1875 5.3625V2.7875C14.3075 2.6 13.3862 2.5 12.4375 2.5C5.5625 2.5 0.0625 7.5 0.0625 13.75C0.0625 20 5.5625 25 12.4375 25C19.3125 25 24.8125 20 24.8125 13.75C24.8125 13.325 24.785 12.9125 24.73 12.5H21.9525Z" fill="#1E1E1E"/>
<path d="M24.8125 3.75V0H22.0625V3.75H17.9375V6.25H22.0625V10H24.8125V6.25H28.9375V3.75H24.8125Z" fill="#1E1E1E"/>
</svg>
