<svg width="20" height="21" viewBox="0 0 20 21" fill="none" xmlns="http://www.w3.org/2000/svg">
<path d="M13.4528 10.6455L7.96171 14.6188C7.93502 14.6381 7.90349 14.6497 7.87061 14.6523C7.83773 14.6548 7.80479 14.6482 7.77544 14.6332C7.74608 14.6182 7.72146 14.5953 7.7043 14.5672C7.68714 14.539 7.67812 14.5067 7.67822 14.4737V13.4268C7.67822 13.1991 7.7876 12.9826 7.97287 12.8487L11.2184 10.5005L7.97287 8.15224C7.7876 8.01832 7.67822 7.80403 7.67822 7.57412V6.52725C7.67822 6.38216 7.8434 6.29733 7.96171 6.38216L13.4528 10.3554C13.551 10.4268 13.551 10.5741 13.4528 10.6455Z" fill="black" fill-opacity="0.85"/>
<path d="M10 20.5C4.47768 20.5 0 16.0223 0 10.5C0 4.97768 4.47768 0.5 10 0.5C15.5223 0.5 20 4.97768 20 10.5C20 16.0223 15.5223 20.5 10 20.5ZM10 2.19643C5.41518 2.19643 1.69643 5.91518 1.69643 10.5C1.69643 15.0848 5.41518 18.8036 10 18.8036C14.5848 18.8036 18.3036 15.0848 18.3036 10.5C18.3036 5.91518 14.5848 2.19643 10 2.19643Z" fill="black" fill-opacity="0.85"/>
</svg>
