<svg width="16" height="16" viewBox="0 0 16 16" fill="none" xmlns="http://www.w3.org/2000/svg">
<path d="M15.1042 14.1183L10.4667 9.4808C11.1863 8.55045 11.5756 7.41295 11.5756 6.21652C11.5756 4.78438 11.0167 3.44152 10.006 2.42902C8.99526 1.41652 7.64883 0.859375 6.21847 0.859375C4.78811 0.859375 3.44169 1.4183 2.43097 2.42902C1.41847 3.43973 0.861328 4.78438 0.861328 6.21652C0.861328 7.64688 1.42026 8.9933 2.43097 10.004C3.44169 11.0165 4.78633 11.5737 6.21847 11.5737C7.4149 11.5737 8.55061 11.1844 9.48097 10.4665L14.1185 15.1022C14.1321 15.1158 14.1482 15.1266 14.166 15.134C14.1838 15.1414 14.2028 15.1452 14.222 15.1452C14.2413 15.1452 14.2603 15.1414 14.2781 15.134C14.2959 15.1266 14.312 15.1158 14.3256 15.1022L15.1042 14.3254C15.1178 14.3118 15.1286 14.2957 15.136 14.2779C15.1433 14.2602 15.1471 14.2411 15.1471 14.2219C15.1471 14.2026 15.1433 14.1836 15.136 14.1658C15.1286 14.148 15.1178 14.1319 15.1042 14.1183ZM9.04704 9.04509C8.2899 9.80045 7.28633 10.2165 6.21847 10.2165C5.15061 10.2165 4.14704 9.80045 3.3899 9.04509C2.63454 8.28795 2.21847 7.28438 2.21847 6.21652C2.21847 5.14866 2.63454 4.1433 3.3899 3.38795C4.14704 2.63259 5.15061 2.21652 6.21847 2.21652C7.28633 2.21652 8.29169 2.6308 9.04704 3.38795C9.8024 4.14509 10.2185 5.14866 10.2185 6.21652C10.2185 7.28438 9.8024 8.28973 9.04704 9.04509Z" fill="white"/>
</svg>
