<svg width="20" height="16" viewBox="0 0 20 16" fill="none" xmlns="http://www.w3.org/2000/svg">
<path d="M18.3636 4.55059L17.1336 6.40059C17.7267 7.58366 18.0171 8.89542 17.9788 10.2183C17.9404 11.5412 17.5744 12.8339 16.9136 13.9806H3.05357C2.19474 12.4907 1.83887 10.7637 2.03871 9.05566C2.23856 7.34761 2.98348 5.74942 4.16305 4.49802C5.34262 3.24662 6.89404 2.40863 8.58731 2.10829C10.2806 1.80794 12.0256 2.06122 13.5636 2.83059L15.4136 1.60059C13.5301 0.392806 11.2959 -0.148405 9.06846 0.0635263C6.84102 0.275458 4.74902 1.22829 3.12706 2.7696C1.50511 4.31092 0.446932 6.35166 0.121788 8.5654C-0.203356 10.7791 0.223321 13.038 1.33357 14.9806C1.50808 15.2829 1.75866 15.5342 2.0604 15.7096C2.36214 15.8851 2.70454 15.9785 3.05357 15.9806H16.9036C17.256 15.982 17.6025 15.8902 17.9081 15.7146C18.2136 15.539 18.4674 15.2858 18.6436 14.9806C19.5649 13.3845 20.0273 11.5649 19.9797 9.72254C19.932 7.88023 19.3762 6.08691 18.3736 4.54059L18.3636 4.55059Z" fill="#03677E"/>
<path d="M8.57357 11.3906C8.75932 11.5765 8.97989 11.7241 9.22269 11.8247C9.46549 11.9254 9.72574 11.9772 9.98857 11.9772C10.2514 11.9772 10.5117 11.9254 10.7545 11.8247C10.9972 11.7241 11.2178 11.5765 11.4036 11.3906L17.0636 2.90059L8.57357 8.56059C8.38762 8.74634 8.2401 8.96691 8.13945 9.20971C8.0388 9.45251 7.987 9.71276 7.987 9.97559C7.987 10.2384 8.0388 10.4987 8.13945 10.7415C8.2401 10.9843 8.38762 11.2048 8.57357 11.3906Z" fill="#03677E"/>
</svg>
