<svg width="25" height="21" viewBox="0 0 25 21" fill="none" xmlns="http://www.w3.org/2000/svg">
<g clip-path="url(#clip0_847_39660)">
<path d="M9.5 15C8.8 15 8.20833 14.7583 7.725 14.275C7.24167 13.7917 7 13.2 7 12.5C7 11.8 7.24167 11.2083 7.725 10.725C8.20833 10.2417 8.8 10 9.5 10C10.2 10 10.7917 10.2417 11.275 10.725C11.7583 11.2083 12 11.8 12 12.5C12 13.2 11.7583 13.7917 11.275 14.275C10.7917 14.7583 10.2 15 9.5 15ZM5.5 20.5C4.95 20.5 4.47917 20.3042 4.0875 19.9125C3.69583 19.5208 3.5 19.05 3.5 18.5V4.5C3.5 3.95 3.69583 3.47917 4.0875 3.0875C4.47917 2.69583 4.95 2.5 5.5 2.5H6.5V0.5H8.5V2.5H16.5V0.5H18.5V2.5H19.5C20.05 2.5 20.5208 2.69583 20.9125 3.0875C21.3042 3.47917 21.5 3.95 21.5 4.5V18.5C21.5 19.05 21.3042 19.5208 20.9125 19.9125C20.5208 20.3042 20.05 20.5 19.5 20.5H5.5ZM5.5 18.5H19.5V8.5H5.5V18.5Z" fill="#001F28"/>
</g>
<defs>
<clipPath id="clip0_847_39660">
<rect width="24" height="21" fill="white" transform="translate(0.5)"/>
</clipPath>
</defs>
</svg>
