<svg width="15" height="14" viewBox="0 0 15 14" fill="none" xmlns="http://www.w3.org/2000/svg">
<path d="M5.75 3.96515H6.90469V9.25109C6.90469 9.31984 6.96094 9.37609 7.02969 9.37609H7.96719C8.03594 9.37609 8.09219 9.31984 8.09219 9.25109V3.96515H9.25C9.35469 3.96515 9.4125 3.84484 9.34844 3.76359L7.59844 1.54796C7.58674 1.53302 7.5718 1.52094 7.55475 1.51263C7.53769 1.50432 7.51897 1.5 7.5 1.5C7.48103 1.5 7.46231 1.50432 7.44525 1.51263C7.42819 1.52094 7.41326 1.53302 7.40156 1.54796L5.65156 3.76202C5.5875 3.84484 5.64531 3.96515 5.75 3.96515ZM13.2188 8.78234H12.2812C12.2125 8.78234 12.1562 8.83859 12.1562 8.90734V11.3136H2.84375V8.90734C2.84375 8.83859 2.7875 8.78234 2.71875 8.78234H1.78125C1.7125 8.78234 1.65625 8.83859 1.65625 8.90734V12.0011C1.65625 12.2776 1.87969 12.5011 2.15625 12.5011H12.8438C13.1203 12.5011 13.3438 12.2776 13.3438 12.0011V8.90734C13.3438 8.83859 13.2875 8.78234 13.2188 8.78234Z" fill="black" fill-opacity="0.25"/>
</svg>
