<svg width="21" height="17" viewBox="0 0 21 17" fill="none" xmlns="http://www.w3.org/2000/svg">
<path d="M18.8636 5.05157L17.6336 6.90157C18.2267 8.08464 18.5171 9.3964 18.4788 10.7193C18.4404 12.0422 18.0744 13.3349 17.4136 14.4816H3.55357C2.69474 12.9917 2.33887 11.2647 2.53871 9.55663C2.73856 7.84858 3.48348 6.25039 4.66305 4.99899C5.84262 3.7476 7.39404 2.90961 9.08731 2.60926C10.7806 2.30892 12.5256 2.5622 14.0636 3.33157L15.9136 2.10157C14.0301 0.893783 11.7959 0.352571 9.56846 0.564503C7.34102 0.776434 5.24902 1.72926 3.62706 3.27058C2.00511 4.81189 0.946932 6.85264 0.621788 9.06638C0.296644 11.2801 0.723321 13.539 1.83357 15.4816C2.00808 15.7838 2.25866 16.0352 2.5604 16.2106C2.86214 16.386 3.20454 16.4795 3.55357 16.4816H17.4036C17.756 16.483 18.1025 16.3912 18.4081 16.2156C18.7136 16.04 18.9674 15.7868 19.1436 15.4816C20.0649 13.8855 20.5273 12.0658 20.4797 10.2235C20.432 8.3812 19.8762 6.58789 18.8736 5.04157L18.8636 5.05157Z" fill="black"/>
<path d="M9.07357 11.8916C9.25932 12.0775 9.47989 12.225 9.72269 12.3257C9.96549 12.4263 10.2257 12.4781 10.4886 12.4781C10.7514 12.4781 11.0117 12.4263 11.2545 12.3257C11.4972 12.225 11.7178 12.0775 11.9036 11.8916L17.5636 3.40157L9.07357 9.06157C8.88762 9.24731 8.7401 9.46789 8.63945 9.71069C8.5388 9.95348 8.487 10.2137 8.487 10.4766C8.487 10.7394 8.5388 10.9997 8.63945 11.2424C8.7401 11.4852 8.88762 11.7058 9.07357 11.8916Z" fill="black"/>
</svg>
