<svg width="25" height="25" viewBox="0 0 25 25" fill="none" xmlns="http://www.w3.org/2000/svg">
<path d="M4.5 14.5C4.5 13.4494 4.70693 12.4091 5.10896 11.4385C5.511 10.4679 6.10028 9.58601 6.84315 8.84314C7.58602 8.10028 8.46793 7.511 9.43853 7.10896C10.4091 6.70693 11.4494 6.5 12.5 6.5C13.5506 6.5 14.5909 6.70693 15.5615 7.10897C16.5321 7.511 17.414 8.10028 18.1569 8.84315C18.8997 9.58602 19.489 10.4679 19.891 11.4385C20.2931 12.4091 20.5 13.4494 20.5 14.5" stroke="#33363F" stroke-width="2" stroke-linejoin="round"/>
<path d="M10.5 15.5C10.5 15.2374 10.5517 14.9773 10.6522 14.7346C10.7528 14.492 10.9001 14.2715 11.0858 14.0858C11.2715 13.9001 11.492 13.7528 11.7346 13.6522C11.9773 13.5517 12.2374 13.5 12.5 13.5C12.7626 13.5 13.0227 13.5517 13.2654 13.6522C13.508 13.7528 13.7285 13.9001 13.9142 14.0858C14.0999 14.2715 14.2473 14.492 14.3478 14.7346C14.4483 14.9773 14.5 15.2374 14.5 15.5" stroke="#33363F" stroke-width="2" stroke-linejoin="round"/>
<path d="M13.5 13.5L15.5 10.5" stroke="#33363F" stroke-width="2" stroke-linecap="round" stroke-linejoin="round"/>
<path d="M20.5 14.5V15.5C20.5 16.0523 20.0523 16.5 19.5 16.5H5.5C4.94772 16.5 4.5 16.0523 4.5 15.5V14.5" stroke="#33363F" stroke-width="2" stroke-linecap="round" stroke-linejoin="round"/>
</svg>
