<svg width="14" height="21" viewBox="0 0 14 21" fill="none" xmlns="http://www.w3.org/2000/svg">
<path d="M4.5 16.5H3V7.5H4.5V16.5ZM7.75 16.5H6.25V7.5H7.75V16.5ZM11 16.5H9.5V7.5H11V16.5ZM12 4.5H10V1.5C10 0.95 9.55 0.5 9 0.5H5C4.45 0.5 4 0.95 4 1.5V4.5H2C0.9 4.5 0 5.4 0 6.5V17.5C0 18.6 0.9 19.5 2 19.5C2 20.05 2.45 20.5 3 20.5C3.55 20.5 4 20.05 4 19.5H10C10 20.05 10.45 20.5 11 20.5C11.55 20.5 12 20.05 12 19.5C13.1 19.5 14 18.6 14 17.5V6.5C14 5.4 13.1 4.5 12 4.5ZM5.5 2H8.5V4.5H5.5V2ZM12 17.5H2V6.5H12V17.5Z" fill="black"/>
</svg>
