<svg width="24" height="25" viewBox="0 0 24 25" fill="none" xmlns="http://www.w3.org/2000/svg">
<path d="M9.09557 21.2929L11.9274 15.1574C11.9505 15.1073 11.962 15.0822 11.978 15.0744C11.9919 15.0676 12.0081 15.0676 12.022 15.0744C12.038 15.0822 12.0495 15.1073 12.0726 15.1574L14.9044 21.2929C14.9337 21.3564 14.9484 21.3882 14.9425 21.4067C14.9374 21.4227 14.9247 21.4351 14.9085 21.4396C14.8899 21.4449 14.8586 21.4293 14.796 21.398L12.0358 20.0179L12.0358 20.0179C12.0227 20.0113 12.0161 20.008 12.0092 20.0068C12.0031 20.0056 11.9969 20.0056 11.9908 20.0068C11.9839 20.008 11.9773 20.0113 11.9642 20.0179L11.9642 20.0179L9.20399 21.398C9.14142 21.4293 9.11014 21.4449 9.09149 21.4396C9.07533 21.4351 9.06256 21.4227 9.05748 21.4067C9.0516 21.3882 9.06626 21.3564 9.09557 21.2929Z" stroke="#33363F" stroke-width="2" stroke-linecap="round"/>
<path d="M4 18.5L7 4.5" stroke="#33363F" stroke-width="2" stroke-linecap="round"/>
<path d="M20 18.5L17 4.5" stroke="#33363F" stroke-width="2" stroke-linecap="round"/>
<path d="M12 11.5L12 9.5" stroke="#33363F" stroke-width="2" stroke-linecap="round"/>
<path d="M12 6.5L12 4.5" stroke="#33363F" stroke-width="2" stroke-linecap="round"/>
</svg>
